<svg width="608" height="608" viewBox="0 0 608 608" fill="none" xmlns="http://www.w3.org/2000/svg">
<path d="M281.924 300.287L324.3 279.658L388.003 394.037C377.33 404.126 364.828 411.123 345.627 414.666L281.924 300.287Z" fill="url(#paint0_linear_242_203)"/>
<path fill-rule="evenodd" clip-rule="evenodd" d="M337.124 422.007C337.042 422.484 337 422.981 337 423.5C337 445.868 355.132 464 377.5 464C399.868 464 418 445.868 418 423.5C418 406.389 410.023 392.049 396.26 386.254L401.775 396.156L395.559 402.031C383.305 413.614 368.859 421.565 347.623 425.484L339.859 426.916L337.124 422.007ZM345.261 414.008L345.627 414.666C352.12 413.468 357.848 411.875 362.997 409.9C356.524 410.927 350.102 412.046 345.261 414.008ZM382.331 383.852C382.222 383.735 382.112 383.618 382.001 383.5C382.046 383.5 382.09 383.5 382.135 383.5L382.331 383.852Z" fill="url(#paint1_linear_242_203)"/>
<path d="M466.889 205.603L467 206L466.04 206.291L432.223 233.688C434.285 235.356 436.152 237.158 437.816 239.089L438.5 237.5L484 225L491 250.5L484.5 281.5L441 293.5L440.521 293.641C436.812 301.74 431.687 309.908 425.377 317.961L431 320.5L437.796 344.772L438.181 344.936L437.905 345.16L438 345.5L400 376.5L373.5 365L373.044 364.78C355.851 376.161 336.659 386.117 316.567 393.758L316.45 394.322L316.5 394.5L311 421.5L263.5 434.5L256.541 408.521C242.469 409.922 229.7 409.519 218.619 407.478L218 408L183.5 435.5L154.5 423L147.5 398L174.934 375.322C174.118 372.654 173.571 369.846 173.306 366.903L173 367L131 378.5L130.85 377.952L130.809 377.963L130.828 377.873L124 353L128.5 330.5L185 306.5L189.202 318.405C194.749 310.227 201.579 302.104 209.456 294.228L192.497 286.968L190 286.5L183.5 283.5L176.5 258L195 243L234 249.5L231.128 255.459L243 259.5C243.532 258.973 244.068 258.455 244.608 257.947L261.041 287.452C240.755 302.875 226.207 321.196 222.706 338.113C216.173 369.68 242.028 379.748 291 366.348C301.803 357.612 318.149 349.299 334.94 340.76C364.705 325.622 395.87 309.772 400.047 289.59C406.518 258.325 372.831 243.578 324.606 256.318L304.1 219.5L310.851 206.154L320.517 203.51L304.5 181L351 168.5L358.5 191.5L357.5 196.5L357.188 196.595L352.249 215.5C367.73 212.997 381.888 216.276 394.28 219.146C397.361 219.859 400.333 220.547 403.189 221.115L403.732 220.675L430.5 168.5L460 181L466.828 205.387L467.043 205.479L466.889 205.603Z" fill="#242F47"/>
<path d="M270.897 280.486C283.583 272.15 297.911 265.005 312.856 259.884L296.098 229.795C281.323 235.354 266.822 241.064 254.037 250.214L270.897 280.486Z" fill="#242F47"/>
<path fill-rule="evenodd" clip-rule="evenodd" d="M466.04 206.291L467 206L466.889 205.603L467.043 205.479L466.828 205.387L460 181L430.5 168.5L403.732 220.675L403.189 221.115C400.333 220.547 397.361 219.859 394.28 219.146C384.19 216.809 372.929 214.201 360.736 214.664C357.955 214.77 355.125 215.035 352.249 215.5L357.188 196.595L357.5 196.5L358.5 191.5L351 168.5L304.5 181L320.517 203.51L310.851 206.154L304.1 219.5L320.901 249.665L324.606 256.318C372.831 243.578 406.518 258.325 400.047 289.59C395.87 309.772 364.705 325.622 334.94 340.76C318.149 349.299 301.803 357.612 291 366.348C242.028 379.748 216.173 369.68 222.706 338.113C226.207 321.196 240.755 302.875 261.041 287.452L244.608 257.947C244.068 258.455 243.532 258.973 243 259.5L231.128 255.459L234 249.5L195 243L176.5 258L183.5 283.5L190 286.5L192.497 286.968L209.456 294.228C207.414 296.27 205.442 298.328 203.545 300.4C200.468 303.759 197.587 307.154 194.92 310.569C192.887 313.171 190.979 315.785 189.202 318.405L185 306.5L128.5 330.5L124 353L130.828 377.873L130.809 377.963L130.85 377.952L131 378.5L173 367L173.306 366.903C173.355 367.447 173.414 367.987 173.482 368.521C173.501 368.676 173.522 368.83 173.543 368.984C173.822 370.992 174.235 372.934 174.78 374.807C174.83 374.979 174.881 375.151 174.934 375.322L147.5 398L154.5 423L183.5 435.5L218 408L218.619 407.478C229.7 409.519 242.469 409.922 256.541 408.521L263.5 434.5L311 421.5L316.5 394.5L316.45 394.322L316.567 393.758C336.659 386.117 355.851 376.161 373.044 364.78L373.5 365L400 376.5L438 345.5L437.905 345.16L438.181 344.936L437.796 344.772L431 320.5L425.377 317.961C427.089 315.775 428.715 313.581 430.248 311.382C434.364 305.48 437.818 299.542 440.521 293.641L441 293.5L484.5 281.5L491 250.5L484.001 225.002L484 225L438.5 237.5L437.816 239.089C436.857 237.976 435.83 236.906 434.737 235.879C433.935 235.125 433.096 234.394 432.223 233.688L466.04 206.291ZM444.326 244.196L440.102 254.002L431.754 244.31C430.419 242.76 428.898 241.289 427.19 239.906L419.51 233.691L457.768 202.697L453.334 186.864L434.224 178.767L410.079 225.829L405.309 229.693L401.629 228.962C398.649 228.369 395.575 227.657 392.541 226.955L392.475 226.939C379.939 224.036 367.245 221.179 353.526 223.397L341.405 225.357L350.177 191.782L345.747 178.196L317.69 185.738L333.675 208.204L316.387 212.934L313.157 219.32L304.1 219.5L313.568 236.5L320.901 249.665L328.63 247.101C351.214 242.041 371.409 242.683 386.059 249.13C394.157 252.693 400.802 258.158 404.816 265.62C408.852 273.122 409.813 281.875 407.881 291.211C405.12 304.552 393.91 315.104 381.66 323.632C369.172 332.326 353.537 340.277 338.88 347.731L338.566 347.89C321.492 356.574 306.031 364.482 296.03 372.569L294.728 373.622L293.111 374.065C268.29 380.856 247.368 382.339 233.024 376.504C225.511 373.447 219.637 368.298 216.408 360.942C213.261 353.771 213.026 345.412 214.872 336.492C218.587 318.537 232.498 300.488 250.745 285.407L257.162 280.486L247.245 262.681L220.001 260.122L222.162 255.637L197.239 251.484L185.598 260.922L190.23 277.795L192.451 278.82L194.836 279.267L223.473 291.526L215.112 299.886C207.538 307.459 201.045 315.196 195.823 322.896L186.931 336.007L180.29 317.192L135.516 336.212L132.216 352.71L136.598 368.673L170.735 359.326L180.38 356.271L181.274 366.185C181.491 368.599 181.936 370.863 182.584 372.983L184.144 378.087L156.606 400.852L161.174 417.165L182.263 426.255L212.926 401.814L216.349 398.925L220.068 399.61C230.279 401.491 242.279 401.901 255.749 400.561L262.511 399.888L269.146 424.66L304.143 415.082L308.275 394.796L308.222 394.606L309.622 387.84L313.723 386.281C333.252 378.854 351.918 369.171 368.628 358.109L372.421 355.598L376.831 357.725L398.717 367.222L428.884 342.613L424.303 326.254L412.789 321.054L419.08 313.026C425.077 305.373 429.846 297.738 433.247 290.31L434.764 286.999L438.804 285.807L477.671 275.085L482.773 250.752L478.404 234.834L444.326 244.196ZM312.856 259.884L296.098 229.795C281.323 235.354 266.822 241.064 254.037 250.214L270.897 280.486C273.112 279.031 275.377 277.612 277.686 276.234C286.345 271.066 295.632 266.47 305.257 262.681C307.769 261.693 310.304 260.759 312.856 259.884ZM301.331 255.632L292.477 239.734C282.508 243.595 273.175 247.594 264.634 252.799L273.792 269.241C282.458 264.083 291.723 259.477 301.331 255.632Z" fill="#CDE0F0"/>
<path d="M181.612 369.953L147.56 397.54L176.71 410.018L210.877 382.338C225.376 385.124 242.818 385.072 262.326 381.807L256.69 409.04L303.904 396.122L309.567 368.758C329.846 361.047 349.208 350.977 366.522 339.463L393.057 350.822L431.181 319.936L404.559 308.539C417.541 295.457 427.628 281.705 433.739 268.162L477.341 256.232L483.793 225.055L440.191 236.985C439.289 225.361 434.024 215.81 425.224 208.688L460.043 180.479L430.893 168L396.189 196.115C381.847 193.264 364.579 193.216 345.25 196.342L351.066 168.236L303.852 181.154L298.133 208.788L311.628 233.017C313.149 232.554 314.676 232.113 316.206 231.695C365.177 218.295 399.581 233.023 393.048 264.59C386.515 296.157 341.52 332.609 292.548 346.009C243.576 359.408 209.173 344.68 215.706 313.113C218.924 297.565 231.473 280.831 249.233 266.251L231.531 234.468L214.545 227.196L176.421 258.082L202.457 269.228C189.203 282.48 178.911 296.433 172.712 310.172L130.262 321.787L123.81 352.963L166.26 341.348C167.175 353.141 172.581 362.799 181.612 369.953Z" fill="url(#paint2_linear_242_203)"/>
<path d="M248.421 240.131L261.645 263.875C273.932 255.19 288.018 247.596 302.86 241.937L289.807 218.5C275.282 224.657 261.342 231.985 248.421 240.131Z" fill="url(#paint3_linear_242_203)"/>
<path d="M282 184.5C282 204.106 266.106 220 246.5 220C226.894 220 211 204.106 211 184.5C211 164.894 226.894 149 246.5 149C266.106 149 282 164.894 282 184.5Z" fill="url(#paint4_linear_242_203)"/>
<path fill-rule="evenodd" clip-rule="evenodd" d="M242.982 230.367L287.629 310.53L329.605 289.179L285.178 209.41C276.989 222.099 262.725 230.5 246.5 230.5C245.316 230.5 244.143 230.455 242.982 230.367Z" fill="url(#paint5_linear_242_203)"/>
<defs>
<linearGradient id="paint0_linear_242_203" x1="297.155" y1="332.188" x2="342.729" y2="308.844" gradientUnits="userSpaceOnUse">
<stop offset="0.159781" stop-color="#E3ECF6"/>
<stop offset="0.896929" stop-color="#81AFD9"/>
</linearGradient>
<linearGradient id="paint1_linear_242_203" x1="341.5" y1="430.21" x2="398.422" y2="410.113" gradientUnits="userSpaceOnUse">
<stop stop-color="#E3ECF6"/>
<stop offset="1" stop-color="#81AFD9"/>
</linearGradient>
<linearGradient id="paint2_linear_242_203" x1="459.501" y1="476.5" x2="132.276" y2="398.465" gradientUnits="userSpaceOnUse">
<stop stop-color="#6394CE"/>
<stop offset="1" stop-color="#E3ECF6"/>
</linearGradient>
<linearGradient id="paint3_linear_242_203" x1="459.501" y1="476.5" x2="132.276" y2="398.465" gradientUnits="userSpaceOnUse">
<stop stop-color="#6394CE"/>
<stop offset="1" stop-color="#E3ECF6"/>
</linearGradient>
<linearGradient id="paint4_linear_242_203" x1="215.821" y1="190.198" x2="269.29" y2="178.364" gradientUnits="userSpaceOnUse">
<stop stop-color="#E3ECF6"/>
<stop offset="1" stop-color="#81AFD9"/>
</linearGradient>
<linearGradient id="paint5_linear_242_203" x1="275.749" y1="287.23" x2="316.844" y2="265.411" gradientUnits="userSpaceOnUse">
<stop offset="0.167107" stop-color="#E3ECF6"/>
<stop offset="0.920093" stop-color="#81AFD9"/>
</linearGradient>
</defs>
</svg>
